<?xml version="1.0" encoding="UTF-8"?>
<svg id="Layer_1" data-name="Layer 1" xmlns="http://www.w3.org/2000/svg" viewBox="0 0 2611.13 175.22">
  <defs>
    <style>
      .cls-1 {
        fill: none;
        stroke: #fff;
        stroke-miterlimit: 10;
      }

      .cls-2 {
        fill: #fff;
      }
    </style>
  </defs>
  <path class="cls-2" d="M1470.33,174.71c-17.39.09-34.87-4.19-47.57-11.97-27.7-16.98-29.48-45.81-53.29-65.14-14.9-12.09-38.25-19.57-62.04-19.87-23.78.3-47.14,7.78-62.04,19.87-23.8,19.33-25.58,48.16-53.28,65.14-12.8,7.84-30.43,12.12-47.96,11.97-.05.01-.1,0-.16,0-17.21,0-34.46-4.27-47.03-11.97-27.7-16.98-29.48-45.81-53.28-65.14-14.9-12.09-38.26-19.57-62.04-19.87-23.79.3-47.14,7.78-62.04,19.87-23.81,19.33-25.59,48.16-53.29,65.14-12.7,7.78-30.18,12.06-47.57,11.97-17.4.09-34.88-4.19-47.57-11.97-27.71-16.98-29.48-45.81-53.29-65.14-14.9-12.09-38.26-19.57-62.04-19.87-23.79.3-47.14,7.78-62.04,19.87-23.81,19.33-25.59,48.16-53.29,65.14-12.8,7.84-30.43,12.12-47.95,11.97-.05.01-.11,0-.16,0-17.22,0-34.46-4.27-47.03-11.97-27.7-16.98-29.48-45.81-53.29-65.14-14.9-12.09-38.25-19.57-62.04-19.87-23.79.3-47.14,7.78-62.04,19.87-23.81,19.33-25.59,48.16-53.29,65.14-13.15,8.06-31.43,12.36-49.44,11.95-18.01.41-36.29-3.89-49.44-11.95-27.7-16.98-29.48-45.81-53.29-65.14-14.9-12.09-38.25-19.57-62.04-19.87V.5h2610.13v77.23c-23.79.3-47.14,7.78-62.04,19.87-23.81,19.33-25.59,48.16-53.29,65.14-12.8,7.84-30.43,12.12-47.96,11.97-.05.01-.1,0-.16,0-17.21,0-34.46-4.27-47.02-11.97-27.71-16.98-29.48-45.81-53.29-65.14-14.9-12.09-38.26-19.57-62.04-19.87-23.79.3-47.14,7.78-62.04,19.87-23.81,19.33-25.59,48.16-53.29,65.14-12.7,7.78-30.18,12.06-47.57,11.97-17.4.09-34.88-4.19-47.57-11.97-27.7-16.98-29.48-45.81-53.29-65.14-14.9-12.09-38.25-19.57-62.04-19.87-23.79.3-47.14,7.78-62.04,19.87-23.81,19.33-25.59,48.16-53.29,65.14-12.79,7.84-30.43,12.12-47.95,11.97-.05.01-.11,0-.16,0-17.22,0-34.46-4.27-47.03-11.97-27.7-16.98-29.48-45.81-53.29-65.14-14.9-12.09-38.25-19.57-62.04-19.87-23.78.3-47.14,7.78-62.04,19.87-23.81,19.33-25.58,48.16-53.29,65.14-12.69,7.78-30.17,12.06-47.57,11.97Z"/>
  <g>
    <line class="cls-1" x1=".5" y1=".5" x2="2610.63" y2=".5"/>
    <path class="cls-1" d="M492.4,174.71c-17.22,0-34.46-4.27-47.03-11.97-27.7-16.98-29.48-45.81-53.29-65.14-14.9-12.09-38.25-19.57-62.04-19.87"/>
    <path class="cls-1" d="M493.92,174.7c-.46.01-.91.01-1.36.01"/>
    <path class="cls-1" d="M491.07,174.69c.45.01.89.02,1.33.02.05,0,.11.01.16,0,17.52.15,35.15-4.13,47.95-11.97,27.7-16.98,29.48-45.81,53.29-65.14,14.9-12.09,38.25-19.57,62.04-19.87"/>
    <path class="cls-1" d="M820.61,174.69c-.63.02-1.25.03-1.87.02-17.4.09-34.88-4.19-47.57-11.97-27.71-16.98-29.48-45.81-53.29-65.14-14.9-12.09-38.26-19.57-62.04-19.87"/>
    <path class="cls-1" d="M165.27,174.69c18.01.41,36.29-3.89,49.44-11.95,27.7-16.98,29.48-45.81,53.29-65.14,14.9-12.09,38.25-19.57,62.04-19.87"/>
    <path class="cls-1" d="M1143.99,174.71c-17.21,0-34.46-4.27-47.03-11.97-27.7-16.98-29.48-45.81-53.28-65.14-14.9-12.09-38.26-19.57-62.04-19.87"/>
    <path class="cls-1" d="M1145.51,174.7c-.46.01-.91.01-1.36.01"/>
    <path class="cls-1" d="M1142.66,174.69c.45.01.89.02,1.33.02.06,0,.11.01.16,0,17.53.15,35.16-4.13,47.96-11.97,27.7-16.98,29.48-45.81,53.28-65.14,14.9-12.09,38.26-19.57,62.04-19.87"/>
    <path class="cls-1" d="M1472.2,174.69c-.63.02-1.25.03-1.87.02-17.39.09-34.87-4.19-47.57-11.97-27.7-16.98-29.48-45.81-53.29-65.14-14.9-12.09-38.25-19.57-62.04-19.87"/>
    <path class="cls-1" d="M816.87,174.69c.63.02,1.25.03,1.87.02,17.39.09,34.87-4.19,47.57-11.97,27.7-16.98,29.48-45.81,53.29-65.14,14.9-12.09,38.25-19.57,62.04-19.87"/>
    <path class="cls-1" d="M1795.59,174.71c-17.22,0-34.46-4.27-47.03-11.97-27.7-16.98-29.48-45.81-53.29-65.14-14.9-12.09-38.25-19.57-62.04-19.87"/>
    <path class="cls-1" d="M1797.11,174.7c-.46.01-.91.01-1.36.01"/>
    <path class="cls-1" d="M1794.26,174.69c.45.01.89.02,1.33.02.05,0,.11.01.16,0,17.52.15,35.16-4.13,47.95-11.97,27.7-16.98,29.48-45.81,53.29-65.14,14.9-12.09,38.25-19.57,62.04-19.87"/>
    <path class="cls-1" d="M2123.8,174.69c-.63.02-1.25.03-1.87.02-17.4.09-34.88-4.19-47.57-11.97-27.7-16.98-29.48-45.81-53.29-65.14-14.9-12.09-38.25-19.57-62.04-19.87"/>
    <path class="cls-1" d="M1468.46,174.69c.63.02,1.25.03,1.87.02,17.4.09,34.88-4.19,47.57-11.97,27.71-16.98,29.48-45.81,53.29-65.14,14.9-12.09,38.26-19.57,62.04-19.87"/>
    <path class="cls-1" d="M2447.18,174.71c-17.21,0-34.46-4.27-47.02-11.97-27.71-16.98-29.48-45.81-53.29-65.14-14.9-12.09-38.26-19.57-62.04-19.87"/>
    <path class="cls-1" d="M2448.7,174.7c-.46.01-.91.01-1.36.01"/>
    <path class="cls-1" d="M2445.85,174.69c.45.01.89.02,1.33.02.06,0,.11.01.16,0,17.53.15,35.16-4.13,47.96-11.97,27.7-16.98,29.48-45.81,53.29-65.14,14.9-12.09,38.25-19.57,62.04-19.87"/>
    <path class="cls-1" d="M2120.06,174.69c.63.02,1.25.03,1.87.02,17.39.09,34.87-4.19,47.57-11.97,27.7-16.98,29.48-45.81,53.29-65.14,14.9-12.09,38.25-19.57,62.04-19.87"/>
    <path class="cls-1" d="M165.27,174.69c-18.01.41-36.29-3.89-49.44-11.95-27.7-16.98-29.48-45.81-53.29-65.14-14.9-12.09-38.25-19.57-62.04-19.87"/>
    <line class="cls-1" x1=".5" y1=".5" x2=".5" y2="77.73"/>
    <line class="cls-1" x1="2610.63" y1=".5" x2="2610.63" y2="77.73"/>
  </g>
</svg>